<svg xmlns="http://www.w3.org/2000/svg" width="36.91" height="18" viewBox="0 0 36.91 18">
  <metadata><?xpacket begin="﻿" id="W5M0MpCehiHzreSzNTczkc9d"?>
<x:xmpmeta xmlns:x="adobe:ns:meta/" x:xmptk="Adobe XMP Core 5.6-c138 79.159824, 2016/09/14-01:09:01        ">
   <rdf:RDF xmlns:rdf="http://www.w3.org/1999/02/22-rdf-syntax-ns#">
      <rdf:Description rdf:about=""/>
   </rdf:RDF>
</x:xmpmeta>
                                                                                                    
                                                                                                    
                                                                                                    
                                                                                                    
                                                                                                    
                                                                                                    
                                                                                                    
                                                                                                    
                                                                                                    
                                                                                                    
                                                                                                    
                                                                                                    
                                                                                                    
                                                                                                    
                                                                                                    
                                                                                                    
                                                                                                    
                                                                                                    
                                                                                                    
                                                                                                    
                           
<?xpacket end="w"?></metadata>
<defs>
    <style>
      .cls-1 {
        fill: #2a2a2a;
        fill-rule: evenodd;
      }
    </style>
  </defs>
  <path id="van" class="cls-1" d="M1057.46,282a3,3,0,1,1-3.07,3A3.043,3.043,0,0,1,1057.46,282Zm0,4.8a1.8,1.8,0,1,0-1.84-1.8A1.828,1.828,0,0,0,1057.46,286.8Zm19.68-4.8a3,3,0,1,1-3.08,3A3.035,3.035,0,0,1,1077.14,282Zm0,4.8a1.8,1.8,0,1,0-1.85-1.8A1.819,1.819,0,0,0,1077.14,286.8Zm-28.11-5.225,0.43-.424V270.6a0.612,0.612,0,0,1,.62-0.6h27.67a0.624,0.624,0,0,1,.51.257l4.26,5.933a6.861,6.861,0,0,1,1.87,2.211l0.47,1.2a8.245,8.245,0,0,1,.26,1.537l0.45,0.438a0.575,0.575,0,0,1,.18.424v1.2a0.576,0.576,0,0,1-.18.424l-0.44.424V285a0.6,0.6,0,0,1-.61.6h-2.46a0.6,0.6,0,0,1-.61-0.6,4.306,4.306,0,0,0-8.61,0,0.611,0.611,0,0,1-.62.6h-9.84a0.6,0.6,0,0,1-.61-0.6,4.306,4.306,0,0,0-8.61,0,0.611,0.611,0,0,1-.62.6h-2.46a0.6,0.6,0,0,1-.61-0.6V284.05l-0.44-.424a0.576,0.576,0,0,1-.18-0.424V282A0.573,0.573,0,0,1,1049.03,281.577Zm23.19-6.175a0.6,0.6,0,0,0,.61.6h6.77a0.6,0.6,0,0,0,.54-0.317,0.573,0.573,0,0,0-.03-0.616l-2.46-3.6a0.6,0.6,0,0,0-.51-0.267h-4.31a0.6,0.6,0,0,0-.61.6v3.6Z" transform="translate(-1048.84 -270)"/>
</svg>
