<svg xmlns="http://www.w3.org/2000/svg" width="17.844" height="24.876" viewBox="0 0 17.844 24.876">
  <metadata><?xpacket begin="﻿" id="W5M0MpCehiHzreSzNTczkc9d"?>
<x:xmpmeta xmlns:x="adobe:ns:meta/" x:xmptk="Adobe XMP Core 5.6-c138 79.159824, 2016/09/14-01:09:01        ">
   <rdf:RDF xmlns:rdf="http://www.w3.org/1999/02/22-rdf-syntax-ns#">
      <rdf:Description rdf:about=""/>
   </rdf:RDF>
</x:xmpmeta>
                                                                                                    
                                                                                                    
                                                                                                    
                                                                                                    
                                                                                                    
                                                                                                    
                                                                                                    
                                                                                                    
                                                                                                    
                                                                                                    
                                                                                                    
                                                                                                    
                                                                                                    
                                                                                                    
                                                                                                    
                                                                                                    
                                                                                                    
                                                                                                    
                                                                                                    
                                                                                                    
                           
<?xpacket end="w"?></metadata>
<defs>
    <style>
      .cls-1 {
        fill: #1b2f8c;
        fill-rule: evenodd;
      }
    </style>
  </defs>
  <path id="_" data-name="£" class="cls-1" d="M998.018,385.492a0.527,0.527,0,0,0-.4-0.168h-2.833a0.527,0.527,0,0,0-.4.168,0.564,0.564,0,0,0-.157.4v3.2h-7.239v-6.7h5.333a0.536,0.536,0,0,0,.394-0.168,0.544,0.544,0,0,0,.166-0.4v-2.315a0.536,0.536,0,0,0-.166-0.406,0.551,0.551,0,0,0-.394-0.159h-5.333v-3.8a2.806,2.806,0,0,1,.909-2.173,3.419,3.419,0,0,1,2.4-.83,4.577,4.577,0,0,1,1.626.318,6.262,6.262,0,0,1,1.207.566,3.77,3.77,0,0,1,.454.335,0.469,0.469,0,0,0,.4.124,0.537,0.537,0,0,0,.384-0.212l1.8-2.244a0.55,0.55,0,0,0,.123-0.4,0.527,0.527,0,0,0-.175-0.362,8.868,8.868,0,0,0-5.858-2.208,7.872,7.872,0,0,0-5.5,1.961,6.436,6.436,0,0,0-2.159,4.982v3.94h-1.661a0.547,0.547,0,0,0-.4.158,0.554,0.554,0,0,0-.157.407v2.314a0.562,0.562,0,0,0,.157.4,0.528,0.528,0,0,0,.4.167H982.6v6.767h-1.7a0.536,0.536,0,0,0-.394.168,0.546,0.546,0,0,0-.166.4v2.65a0.556,0.556,0,0,0,.157.406,0.544,0.544,0,0,0,.4.159h16.717a0.542,0.542,0,0,0,.4-0.159,0.552,0.552,0,0,0,.157-0.406v-6.483A0.558,0.558,0,0,0,998.018,385.492Z" transform="translate(-980.344 -368.062)"/>
</svg>
