<svg xmlns="http://www.w3.org/2000/svg" width="31.5" height="18" viewBox="0 0 31.5 18">
  <metadata><?xpacket begin="﻿" id="W5M0MpCehiHzreSzNTczkc9d"?>
<x:xmpmeta xmlns:x="adobe:ns:meta/" x:xmptk="Adobe XMP Core 5.6-c138 79.159824, 2016/09/14-01:09:01        ">
   <rdf:RDF xmlns:rdf="http://www.w3.org/1999/02/22-rdf-syntax-ns#">
      <rdf:Description rdf:about=""/>
   </rdf:RDF>
</x:xmpmeta>
                                                                                                    
                                                                                                    
                                                                                                    
                                                                                                    
                                                                                                    
                                                                                                    
                                                                                                    
                                                                                                    
                                                                                                    
                                                                                                    
                                                                                                    
                                                                                                    
                                                                                                    
                                                                                                    
                                                                                                    
                                                                                                    
                                                                                                    
                                                                                                    
                                                                                                    
                                                                                                    
                           
<?xpacket end="w"?></metadata>
<defs>
    <style>
      .cls-1 {
        fill: #2a2a2a;
        fill-rule: evenodd;
      }
    </style>
  </defs>
  <path id="bike" class="cls-1" d="M1190.9,282.7a4.684,4.684,0,0,0-3.71-3.856,4.783,4.783,0,0,0-2.43.132l-0.5-1.074a5.869,5.869,0,0,1,1.44-.185h2.1a0.524,0.524,0,0,0,.53-0.514c0-.164-0.3-3.132-1.05-4.114A8.139,8.139,0,0,0,1181.5,270a0.531,0.531,0,0,0-.43.222,0.5,0.5,0,0,0-.06.473l0.25,0.644-1.21-.295a0.515,0.515,0,1,0-.25,1l1.9,0.466,0.46,1.2c-2.08-.739-5.17-1.395-7.33-0.51a3.805,3.805,0,0,0-2.06,1.906l-4.39-.431v-0.564a0.52,0.52,0,0,0-.43-0.5l-5.25-1.028a0.543,0.543,0,0,0-.52.192,0.508,0.508,0,0,0-.05.542l0.78,1.527-2.57.84a0.527,0.527,0,0,0-.36.415l-0.52,3.6a0.508,0.508,0,0,0,.32.55,0.53,0.53,0,0,0,.62-0.177,6.06,6.06,0,0,1,4.83-2.357,5.766,5.766,0,0,1,5.56,4.144l-1.04.184a4.614,4.614,0,1,0,.2,1.329c0-.106-0.01-0.211-0.01-0.316l1.04-.185c0.01,0.165.02,0.332,0.02,0.5a0.534,0.534,0,0,0,.54.515h7.86a0.52,0.52,0,0,0,.53-0.508,5.641,5.641,0,0,1,3.34-5.13l0.54,1.156a4.586,4.586,0,0,0-2.23,4.8A4.724,4.724,0,0,0,1190.9,282.7Zm-25.67,4.274a3.6,3.6,0,1,1,3.48-4.742l-3.58.636a0.519,0.519,0,0,0-.42.6,0.528,0.528,0,0,0,.52.422,0.456,0.456,0,0,0,.09-0.008l3.57-.636a0.566,0.566,0,0,1,.01.13A3.642,3.642,0,0,1,1165.23,286.972Zm21,0a3.644,3.644,0,0,1-3.68-3.6,3.593,3.593,0,0,1,1.69-3.027l1.51,3.24a0.531,0.531,0,0,0,.48.3,0.5,0.5,0,0,0,.21-0.046,0.5,0.5,0,0,0,.26-0.681l-1.5-3.241a3.764,3.764,0,0,1,1.03-.146A3.6,3.6,0,1,1,1186.23,286.972Z" transform="translate(-1159.47 -270)"/>
</svg>
