<svg xmlns="http://www.w3.org/2000/svg" width="38.688" height="18" viewBox="0 0 38.688 18">
  <metadata><?xpacket begin="﻿" id="W5M0MpCehiHzreSzNTczkc9d"?>
<x:xmpmeta xmlns:x="adobe:ns:meta/" x:xmptk="Adobe XMP Core 5.6-c138 79.159824, 2016/09/14-01:09:01        ">
   <rdf:RDF xmlns:rdf="http://www.w3.org/1999/02/22-rdf-syntax-ns#">
      <rdf:Description rdf:about=""/>
   </rdf:RDF>
</x:xmpmeta>
                                                                                                    
                                                                                                    
                                                                                                    
                                                                                                    
                                                                                                    
                                                                                                    
                                                                                                    
                                                                                                    
                                                                                                    
                                                                                                    
                                                                                                    
                                                                                                    
                                                                                                    
                                                                                                    
                                                                                                    
                                                                                                    
                                                                                                    
                                                                                                    
                                                                                                    
                                                                                                    
                           
<?xpacket end="w"?></metadata>
<defs>
    <style>
      .cls-1 {
        fill: #2a2a2a;
        fill-rule: evenodd;
      }
    </style>
  </defs>
  <path id="car_copy" data-name="car copy" class="cls-1" d="M968.365,281.447a3.278,3.278,0,1,1-3.225,3.277A3.255,3.255,0,0,1,968.365,281.447Zm0,5.244a1.967,1.967,0,1,0-1.935-1.967A1.953,1.953,0,0,0,968.365,286.691Zm-29.67-5.244v-3.933a0.654,0.654,0,0,1,.441-0.622l3.639-1.233a9.916,9.916,0,0,1,7.418-5.345l0.024,0c7.689-1.08,13.461.682,17.168,5.24a14.715,14.715,0,0,1,7.231,1.7,3.219,3.219,0,0,1,1.414,2.564l0.075,1.628a0.651,0.651,0,0,1,.645.655v2.622a0.651,0.651,0,0,1-.645.656h-2.58a0.655,0.655,0,0,1-.645-0.663s0-.006,0-0.01a4.515,4.515,0,1,0-9.029.017,0.592,0.592,0,0,1-.645.656H951.6a0.655,0.655,0,0,1-.645-0.663v-0.011a4.515,4.515,0,1,0-9.03.018,0.591,0.591,0,0,1-.645.656H938.7a0.651,0.651,0,0,1-.645-0.656V282.1A0.651,0.651,0,0,1,938.7,281.447Zm17.415-6.227a0.325,0.325,0,0,0,.323.328h8.411a0.33,0.33,0,0,0,.213-0.576,14.05,14.05,0,0,0-8.592-3.575,0.331,0.331,0,0,0-.355.331v3.492Zm-7.749,0a0.326,0.326,0,0,0,.323.325H954.5a0.326,0.326,0,0,0,.323-0.328v-3.579a0.327,0.327,0,0,0-.321-0.331,29.261,29.261,0,0,0-4.093.3,10.7,10.7,0,0,0-1.862.5,0.33,0.33,0,0,0-.209.314Zm-3.366.325h1.753a0.325,0.325,0,0,0,.323-0.331l-0.017-1.777a0.324,0.324,0,0,0-.521-0.257,8.62,8.62,0,0,0-1.794,1.834A0.331,0.331,0,0,0,945,275.548Zm1.44,5.9a3.278,3.278,0,1,1-3.225,3.277A3.255,3.255,0,0,1,946.435,281.447Zm0,5.244a1.967,1.967,0,1,0-1.935-1.967A1.953,1.953,0,0,0,946.435,286.691Z" transform="translate(-938.062 -270)"/>
</svg>
